<?xml version="1.0" encoding="utf-8"?>
<!-- Generator: Adobe Illustrator 19.2.1, SVG Export Plug-In . SVG Version: 6.00 Build 0)  -->
<svg version="1.1" id="Layer_1" xmlns="http://www.w3.org/2000/svg" xmlns:xlink="http://www.w3.org/1999/xlink" x="0px" y="0px"
	 viewBox="0 0 26 20" enable-background="new 0 0 26 20" xml:space="preserve">
<path d="M24.6,4H1.4C0.6,4,0,3.4,0,2.6V1.4C0,0.6,0.6,0,1.4,0h23.2C25.4,0,26,0.6,26,1.4v1.2C26,3.4,25.4,4,24.6,4z"/>
<path d="M24.6,12H1.4C0.6,12,0,11.4,0,10.6V9.4C0,8.6,0.6,8,1.4,8h23.2C25.4,8,26,8.6,26,9.4v1.2C26,11.4,25.4,12,24.6,12z"/>
<path d="M24.6,20H1.4C0.6,20,0,19.4,0,18.6v-1.2C0,16.6,0.6,16,1.4,16h23.2c0.8,0,1.4,0.6,1.4,1.4v1.2C26,19.4,25.4,20,24.6,20z"/>
</svg>
